<svg xmlns="http://www.w3.org/2000/svg" fill="none" viewBox="0 0 101 101" class="styles_shape__B3q9p styles_service__shape__YJSqT title-50" style="translate: none; rotate: none; scale: none; transform: rotate(100deg);"><path d="M49.835 50.868l-7.178 4.147a5.652 5.652 0 00-2.824 4.895v21.102a5.652 5.652 0 002.824 4.894L60.869 96.43l.049.028a5.644 5.644 0 005.647 0l18.262-10.552a5.652 5.652 0 002.823-4.895V55.494m-44.139-.948l14.832-8.561a5.652 5.652 0 002.824-4.895V19.988a5.652 5.652 0 00-2.824-4.894L40.131 4.57l-.05-.028a5.645 5.645 0 00-5.647 0l-18.26 10.552a5.652 5.652 0 00-2.825 4.894v25.517M50.29 51.23l-2.143 8.009a5.652 5.652 0 001.464 5.457l14.922 14.922a5.652 5.652 0 005.457 1.464l20.319-5.437.054-.015a5.644 5.644 0 003.993-3.994l5.452-20.373a5.653 5.653 0 00-1.464-5.458L80.479 27.94M48.42 58.303l4.434-16.542a5.652 5.652 0 00-1.464-5.457L36.467 21.382a5.652 5.652 0 00-5.457-1.464L10.69 25.356l-.054.014a5.644 5.644 0 00-3.993 3.994L1.192 49.737a5.652 5.652 0 001.464 5.458L20.521 73.06m30.347-21.894l4.147 7.178a5.652 5.652 0 004.895 2.824h21.102a5.652 5.652 0 004.894-2.824L96.43 40.131l.028-.049a5.645 5.645 0 000-5.648l-10.552-18.26a5.652 5.652 0 00-4.895-2.824H55.494m-.948 44.139l-8.561-14.832a5.652 5.652 0 00-4.895-2.824H19.988a5.652 5.652 0 00-4.894 2.824L4.57 60.869l-.028.05a5.644 5.644 0 000 5.647l10.552 18.26a5.651 5.651 0 004.894 2.825h25.517M51.23 50.71l8.009 2.143a5.652 5.652 0 005.457-1.464l14.922-14.922a5.652 5.652 0 001.464-5.457L75.644 10.69l-.014-.054a5.644 5.644 0 00-3.994-3.993L51.262 1.192a5.652 5.652 0 00-5.457 1.464L27.94 20.521m30.362 32.06L41.76 48.147a5.652 5.652 0 00-5.458 1.464L21.383 64.533a5.651 5.651 0 00-1.464 5.457l5.437 20.319.015.054a5.644 5.644 0 003.993 3.993l20.374 5.452a5.653 5.653 0 005.458-1.464L73.06 80.479" stroke="#010561" stroke-width="1.5" stroke-linecap="round"></path></svg>