<svg xmlns="http://www.w3.org/2000/svg" fill="none" viewBox="0 0 101 101" class="styles_shape__B3q9p styles_right__shapeSvg__uGpEA title-80"><path d="M27.62 91.19L25.8 68.634a5.31 5.31 0 012.654-4.6l18.978-7.187a5.312 5.312 0 015.307 0l.046.026 18.023 6.252a5.31 5.31 0 012.653 4.599l-.909 23.466c0 1.898-1.468 3.745-3.11 4.694M27.62 91.19v.001m0-.001c0 1.898 1.814 3.745 3.456 4.694M72.553 8.637l1.819 21.647a5.31 5.31 0 01-2.654 4.6L52.74 42.98a5.31 5.31 0 01-5.307 0l-.046-.026-18.932-8.07a5.31 5.31 0 01-2.654-4.599L27.62 8.637c0-1.898 1.814-4.09 3.456-5.04m41.477 5.04v-.001m0 .001c0-1.898-1.814-3.745-3.456-4.694" stroke="#010561" stroke-width="2" stroke-linecap="round" stroke-linejoin="round"></path><path d="M5.013 63.214l14.02-16.748a5.31 5.31 0 015.13-1.376l19.145 7.85a5.312 5.312 0 013.752 3.752l.014.051 6.928 17.275a5.311 5.311 0 01-1.376 5.129l-15.84 15.84c-1.342 1.342-3.878 1.388-5.71.897M5.013 63.214h0m0 0c-1.342 1.342-1.388 3.878-.897 5.71m91.044-32.31L82.048 52.451a5.31 5.31 0 01-5.129 1.376l-20.054-6.94a5.31 5.31 0 01-3.752-3.753l-.014-.051L45.262 24.9a5.31 5.31 0 011.376-5.129l16.749-14.93c1.342-1.343 3.878-1.388 5.71-.898m26.063 32.67h0m0 0c1.342-1.342 1.733-3.878 1.243-5.71" stroke="#010561" stroke-width="2" stroke-linecap="round" stroke-linejoin="round"></path><path d="M63.387 94.987l-15.84-15.84a5.31 5.31 0 01-1.375-5.128l6.94-17.327a5.31 5.31 0 013.753-3.752l.051-.014 19.094-6.928a5.31 5.31 0 015.128 1.376l14.022 15.84c1.342 1.342 1.387 4.224.897 6.056m-32.67 25.717h0m0 0c1.342 1.342 4.223 1.388 6.055.897M36.786 4.84l15.84 15.84A5.31 5.31 0 0154 25.807l-6.94 17.327a5.311 5.311 0 01-3.753 3.752l-.051.014-19.094 7.837a5.31 5.31 0 01-5.128-1.376L5.013 36.613C3.671 35.271 3.28 32.39 3.77 30.558M36.786 4.84h0m0 0c-1.342-1.342-3.878-1.733-5.71-1.243" stroke="#010561" stroke-width="2" stroke-linecap="round" stroke-linejoin="round"></path><path d="M8.81 27.447l22.556-.91a5.31 5.31 0 014.6 2.654l7.187 18.07a5.312 5.312 0 010 5.306l-.026.046-7.16 18.023a5.31 5.31 0 01-4.6 2.654L8.81 72.38c-1.898 0-3.745-1.814-4.694-3.456M8.81 27.447H8.81m.001 0c-1.898 0-4.091 1.468-5.04 3.11M91.363 72.38l-21.647.91a5.31 5.31 0 01-4.6-2.654L57.02 52.567a5.311 5.311 0 010-5.307l.026-.046 8.07-18.932a5.31 5.31 0 014.599-2.654l21.648 1.819c1.898 0 4.09 1.814 5.04 3.456m-5.04 41.478h.001m-.001 0c1.898 0 3.745-1.47 4.694-3.111" stroke="#010561" stroke-width="2" stroke-linecap="round" stroke-linejoin="round"></path></svg>