<svg xmlns="http://www.w3.org/2000/svg" fill="none" viewBox="0 0 101 101" class="styles_shape__B3q9p styles_service__shape__YJSqT title-50" style="translate: none; rotate: none; scale: none; transform: rotate(100deg);"><path d="M63.867 45.55l6.9-3.986a5.433 5.433 0 002.715-4.705V16.574a5.433 5.433 0 00-2.714-4.705L53.26 1.755l-.047-.027a5.426 5.426 0 00-5.428 0L30.232 11.87a5.433 5.433 0 00-2.714 4.705V36.86m9.615 18.59l-6.9 3.986a5.433 5.433 0 00-2.715 4.705v20.285a5.433 5.433 0 002.714 4.705L47.74 99.245l.047.027a5.425 5.425 0 005.428 0L70.768 89.13a5.433 5.433 0 002.714-4.705V64.14m-10.03-7.688l7.699 2.06a5.433 5.433 0 005.246-1.407L90.74 42.762a5.433 5.433 0 001.408-5.246L86.92 17.984l-.014-.052a5.426 5.426 0 00-3.839-3.838l-19.584-5.24a5.433 5.433 0 00-5.247 1.407L43.894 24.604m-6.346 19.944l-7.699-2.06a5.433 5.433 0 00-5.246 1.407L10.26 58.238a5.433 5.433 0 00-1.407 5.246l5.226 19.532.015.052a5.426 5.426 0 003.838 3.838l19.585 5.24a5.432 5.432 0 005.246-1.407l14.343-14.343M55.45 63.867l3.986 6.9a5.433 5.433 0 004.705 2.715h20.285a5.433 5.433 0 004.705-2.714L99.245 53.26l.027-.047a5.425 5.425 0 000-5.428L89.13 30.232a5.433 5.433 0 00-4.705-2.714H64.14m-18.59 9.615l-3.986-6.9a5.433 5.433 0 00-4.705-2.715H16.574a5.433 5.433 0 00-4.705 2.714L1.755 47.74l-.027.047a5.426 5.426 0 000 5.428L11.87 70.768a5.433 5.433 0 004.705 2.714H36.86m7.688-10.03l-2.06 7.699a5.433 5.433 0 001.407 5.246L58.238 90.74a5.433 5.433 0 005.246 1.408l19.532-5.227.052-.015a5.425 5.425 0 003.838-3.838l5.24-19.584a5.433 5.433 0 00-1.407-5.247L76.396 43.894m-19.944-6.346l2.06-7.699a5.433 5.433 0 00-1.407-5.246L42.762 10.26a5.433 5.433 0 00-5.246-1.408L17.984 14.08l-.052.014a5.426 5.426 0 00-3.838 3.84l-5.24 19.584a5.433 5.433 0 001.407 5.246l14.343 14.343" stroke="#010561" stroke-width="1.5" stroke-linecap="round"></path></svg>