<svg xmlns="http://www.w3.org/2000/svg" fill="none" viewBox="0 0 101 101" class="styles_shape__B3q9p styles_service__shape__YJSqT title-50" style="translate: none; rotate: none; scale: none; transform: rotate(100deg);"><path d="M36.282 2.04l-7.557 4.366a5.949 5.949 0 00-2.972 5.152V33.77a5.949 5.949 0 002.972 5.151l19.17 11.076.052.03a5.94 5.94 0 005.944 0L73.113 38.92a5.949 5.949 0 002.972-5.152V6.081M65.557 99.796l7.556-4.365a5.949 5.949 0 002.972-5.152V68.067a5.949 5.949 0 00-2.972-5.151L53.943 51.84l-.052-.03a5.941 5.941 0 00-5.944 0L28.725 62.917a5.95 5.95 0 00-2.972 5.152v27.687m74.044-59.475l-4.365-7.556a5.95 5.95 0 00-5.152-2.972H68.068a5.949 5.949 0 00-5.152 2.972L51.84 47.895l-.03.051a5.94 5.94 0 000 5.945l11.107 19.221a5.949 5.949 0 005.153 2.972h27.687M2.04 65.556l4.365 7.556a5.949 5.949 0 005.152 2.972H33.77a5.949 5.949 0 005.152-2.972l11.076-19.17.03-.051a5.941 5.941 0 000-5.945L38.92 28.725a5.95 5.95 0 00-5.152-2.973H6.08m69.05-19.746L66.7 3.75a5.949 5.949 0 00-5.745 1.541L45.25 20.997a5.949 5.949 0 00-1.541 5.745l5.723 21.387.016.057a5.942 5.942 0 004.203 4.203l21.446 5.739a5.949 5.949 0 005.744-1.542l19.578-19.578M26.707 95.832l8.43 2.256a5.95 5.95 0 005.745-1.541l15.706-15.707a5.949 5.949 0 001.541-5.744l-5.723-21.387-.016-.057a5.941 5.941 0 00-4.203-4.204L26.74 43.71a5.95 5.95 0 00-5.744 1.542L1.419 64.828M95.831 75.13l2.257-8.43a5.949 5.949 0 00-1.542-5.744L80.84 45.25a5.949 5.949 0 00-5.745-1.542L53.71 49.432l-.058.015a5.94 5.94 0 00-4.203 4.204L43.71 75.096a5.95 5.95 0 001.541 5.745l19.578 19.577M6.007 26.707l-2.256 8.43a5.949 5.949 0 001.54 5.744l15.707 15.706a5.949 5.949 0 005.745 1.541l21.387-5.723.057-.016a5.941 5.941 0 004.203-4.203l5.738-21.445a5.949 5.949 0 00-1.541-5.745L37.009 1.418" stroke="#010561" stroke-width="1.5" stroke-linecap="round"></path></svg>