<svg xmlns="http://www.w3.org/2000/svg" width="57" height="54" viewBox="0 0 57 54" fill="none"><path class="star" d="M35.2288 18.1385C34.5527 22.5592 36.8333 25.3963 38.8747 26.8395M32.2666 38.0795C33.0199 36.9619 33.5644 35.7195 34.2644 34.5675C34.6244 33.9758 35.0515 33.3865 35.6734 33.0765C36.0312 32.8987 36.4314 32.824 36.8258 32.7559C38.296 32.5016 39.7856 32.3027 41.2047 31.8473C41.9255 31.6169 42.6356 31.3128 43.2086 30.8226C43.9128 30.2184 44.3179 29.2923 44.2158 28.3615C44.1137 27.4307 43.5207 26.6137 42.9191 25.8747C41.2936 23.8793 39.1316 22.1997 38.7369 19.5097C38.6176 18.695 38.7793 17.8711 38.8375 17.0514C38.9046 16.0879 38.8268 15.1196 38.748 14.1561C38.6971 13.5256 38.6556 12.7329 38.3249 12.1742C37.9567 11.5503 37.075 11.2331 36.3949 11.1695C35.5909 11.0937 34.788 11.2881 34.0206 11.5295C32.3716 12.0472 30.9424 12.9446 29.3539 13.5753C29.0564 13.693 28.7467 13.797 28.4254 13.7951C28.0997 13.7939 27.7839 13.6836 27.4768 13.5747C25.2752 12.7976 23.0078 11.7371 20.652 11.6314C20.0118 11.6024 19.3474 11.7271 18.8309 12.0972C18.3123 12.469 17.9862 13.0595 17.831 13.6763C17.6758 14.2931 17.6758 14.938 17.7091 15.5748C17.7937 17.182 18.0788 18.7725 18.3643 20.3592C18.431 20.7289 18.496 21.1136 18.3923 21.4732C18.3067 21.7686 18.1125 22.0194 17.9223 22.2616C16.8088 23.6842 15.6854 25.0995 14.5825 26.531C13.8051 27.5409 13.1897 28.9309 13.8794 30.1673C14.5065 31.2924 15.7699 31.739 16.942 32.0554C17.6157 32.2377 18.2911 32.4194 18.9754 32.5564C20.0214 32.7659 21.2411 32.7624 22.1459 33.397C22.4506 33.6105 22.6942 33.8969 22.9217 34.189C24.2647 35.9126 25.2667 37.8776 26.743 39.5027C27.5101 40.3474 28.5974 40.9265 29.702 40.4261C30.8066 39.9258 31.6206 39.0429 32.2704 38.08L32.2666 38.0795Z" stroke="#5E29F9" stroke-width="1.5" stroke-miterlimit="10" stroke-linecap="round" style="opacity: 1; translate: none; rotate: none; scale: none; transform-origin: 0px 0px;" data-svg-origin="28.905773162841797 25.882349967956543" transform="matrix(1,0,0,1,0,0)"></path><path class="lines" d="M50.2451 30.3207L55.8331 32.5057M31.2428 47.1617L32.2579 53.0752M7.08393 28.8568L1.17041 29.8719M15.4704 5.73513L11.547 1.19568M41.8082 6.23674L45.2712 1.33702" stroke="#5E29F9" stroke-width="1.5" stroke-miterlimit="10" stroke-linecap="round" style="opacity: 1; translate: none; rotate: none; scale: none; transform-origin: 0px 0px;" data-svg-origin="28.501754641532898 27.135440230369568" transform="matrix(1,0,0,1,0,0)"></path></svg>