<svg xmlns="http://www.w3.org/2000/svg" viewBox="0 0 98 60" width="98" height="60" fill="none"><path d="M39.867 30.121v10.416c0 .593.318 1.138.826 1.426l8.942 5.208a1.655 1.655 0 001.636 0l8.927-5.208a1.64 1.64 0 00.826-1.426V30.12a1.64 1.64 0 00-.826-1.426l-3.51-2.051" stroke="#010561" stroke-width="2.75" stroke-miterlimit="10" stroke-linecap="round"></path><path d="M46.157 32.157V21.74a1.64 1.64 0 00-.826-1.426l-8.943-5.208a1.655 1.655 0 00-1.636 0l-8.926 5.208A1.64 1.64 0 0025 21.74v10.416c0 .592.318 1.137.826 1.426l8.942 5.208M65.058 35.842l7.116-4.15A1.64 1.64 0 0073 30.266V19.85a1.64 1.64 0 00-.826-1.426l-8.942-5.208a1.655 1.655 0 00-1.636 0l-8.943 5.208a1.64 1.64 0 00-.826 1.426v10.416" stroke="#010561" stroke-width="2.75" stroke-miterlimit="10" stroke-linecap="round"></path></svg>